<svg width="40" height="40" viewBox="0 0 24 26" fill="none" xmlns="http://www.w3.org/2000/svg" class="footer__description-logo"><path d="M12.361 17.461s3.739.91 6.7-1.391c2.962-2.302 2.87-5.772 2.87-5.772s-3.352-1.032-6.396 1.163c-3.043 2.195-3.174 6-3.174 6zM12.35 19.197s.61 2.603 3.004 3.708c2.395 1.105 4.563-.053 4.563-.053s-.408-2.402-2.764-3.592-4.804-.063-4.804-.063zM17.983 18.07s1.293 1.421 3.179 1.293c1.886-.13 2.838-1.596 2.838-1.596s-1.097-1.364-2.985-1.302c-1.889.061-3.032 1.605-3.032 1.605zM16.093 9.097S14.1 5.839 10.36 5.394C6.62 4.95 4.205 7.47 4.205 7.47s1.632 3.074 5.353 3.651 6.535-2.023 6.535-2.023zM17.341 7.878s1.43-2.267.526-4.723C16.962.698 14.602 0 14.602 0s-1.424 1.985-.61 4.473c.814 2.487 3.349 3.405 3.349 3.405zM12.553 4.735s.101-1.91-1.325-3.138C9.802.367 8.081.74 8.081.74s-.2 1.732 1.182 3.01c1.38 1.28 3.29.985 3.29.985zM9.199 13.575s-3.297 1.971-3.745 5.67c-.449 3.7 2.097 6.088 2.097 6.088s3.107-1.61 3.69-5.294c.584-3.685-2.042-6.464-2.042-6.464zM7.964 12.338s-2.294-1.414-4.775-.52C.708 12.714 0 15.049 0 15.049s2.007 1.41 4.522.604c2.514-.806 3.442-3.314 3.442-3.314zM4.788 17.077s-1.93-.102-3.172 1.31C.375 19.796.748 21.5.748 21.5s1.752.197 3.044-1.169c1.293-1.366.996-3.254.996-3.254z" fill="#1C2A63"></path></svg>